<svg height="185" viewBox="0 0 1035 185" width="1035" xmlns="http://www.w3.org/2000/svg">
	<g id="Light" transform="translate(-483 -408)">
		<g data-name="Horizontal Light" id="Horizontal_Light" transform="translate(-461.408 -460.468)">
			<g data-name="Group 8" id="Group_8">
				<path d="M944.408,993.279h24.758c.549,6.054,6.967,10.092,15.586,10.092,7.7,0,12.1-2.568,12.1-6.79,0-14.863-50.614-1.651-50.614-35.231,0-16.7,13.569-29.546,35.761-29.546,19.438,0,36.862,10.092,39.063,30.095H995.023c-.365-4.587-5.317-8.625-13.569-8.625-5.869,0-10.273,2.019-10.273,6.241,0,13.946,50.8-.733,50.8,36.885,0,16.514-15.59,29.177-35.945,29.177C962.565,1025.577,946.242,1013.647,944.408,993.279Z" data-name="Path 39" fill="#1E365C" id="Path_39"/>
				<path d="M1118.871,933.638v90.1h-25.856v-11.93c-5.5,8.81-13.937,13.765-24.39,13.765-23.109,0-37.046-15.6-37.046-41.108V933.638h25.856v47.53c0,11.927,6.97,19.635,17.792,19.635,10.634,0,17.788-7.708,17.788-19.635v-47.53Z" data-name="Path 40" fill="#1E365C" id="Path_40"/>
				<path d="M1229.674,978.6c0,25.876-18.521,46.981-41.81,46.981-12.471,0-22.192-5.14-28.426-14.5v42.39h-25.859V933.638h25.859V946.3c6.234-9.359,15.955-14.5,28.426-14.5C1211.153,931.8,1229.674,952.724,1229.674,978.6Zm-25.307,0a22.2,22.2,0,0,0-22.372-22.2c-12.655,0-22.557,9.727-22.557,22.2,0,12.663,9.9,22.206,22.557,22.206A22.084,22.084,0,0,0,1204.367,978.6Z" data-name="Path 41" fill="#1E365C" id="Path_41"/>
				<path d="M1327.972,984.838h-66.937c1.834,11.742,10.818,19.266,22.925,19.266,10.085,0,16.5-4.4,17.969-10.641h25.307c-2.931,19.45-19.987,32.114-42.543,32.114-26.592,0-47.315-20.736-47.315-47.346,0-26.241,20.539-46.428,46.763-46.428,24.39,0,44.38,19.086,44.38,43.86A90.611,90.611,0,0,1,1327.972,984.838Zm-26.408-16.518c-.733-9.174-8.988-15.6-18.521-15.6-9.9,0-17.608,4.956-20.726,15.6Z" data-name="Path 42" fill="#1E365C" id="Path_42"/>
				<path d="M1396.117,932.9v23.489a41.025,41.025,0,0,0-9.353-1.286c-12.471,0-22.557,7.524-22.557,24.225v44.409h-25.859v-90.1h25.859v10.276A27.1,27.1,0,0,1,1387.5,931.8,48.355,48.355,0,0,1,1396.117,932.9Z" data-name="Path 43" fill="#1E365C" id="Path_43"/>
				<path d="M1492.578,895.286v128.456h-25.856v-12.848c-6.234,9.359-15.955,14.683-28.61,14.683-23.289,0-41.811-21.1-41.811-46.981s18.521-46.793,41.811-46.793c12.655,0,22.376,5.32,28.61,14.683v-51.2Zm-25.856,83.31c0-12.476-9.9-22.2-22.557-22.2a22.207,22.207,0,1,0,0,44.409C1456.82,1000.8,1466.722,991.26,1466.722,978.6Z" data-name="Path 44" fill="#1E365C" id="Path_44"/>
				<path d="M1565.054,932.9v23.489a41.023,41.023,0,0,0-9.353-1.286c-12.471,0-22.557,7.524-22.557,24.225v44.409h-25.859v-90.1h25.859v10.276a27.1,27.1,0,0,1,23.289-12.111A48.355,48.355,0,0,1,1565.054,932.9Z" data-name="Path 45" fill="#1E365C" id="Path_45"/>
				<path d="M1661.518,933.638v90.1h-25.859v-12.848c-6.234,9.359-15.954,14.683-28.61,14.683-23.289,0-41.811-21.1-41.811-46.981s18.521-46.793,41.811-46.793c12.655,0,22.376,5.32,28.61,14.683V933.638ZM1635.658,978.6c0-12.476-9.9-22.2-22.557-22.2a22.207,22.207,0,1,0,0,44.409C1625.754,1000.8,1635.658,991.26,1635.658,978.6Z" data-name="Path 46" fill="#1E365C" id="Path_46"/>
				<path d="M1715.615,929.235v4.4H1737.8v24.59h-22.188v65.514h-25.859V958.228h-16.687v-24.59h16.687v-4.956c0-24.038,14.489-37.983,35.58-37.983a55.225,55.225,0,0,1,12.468,1.467v23.857a25.018,25.018,0,0,0-6.6-.733C1722.4,915.289,1715.615,919.508,1715.615,929.235Z" data-name="Path 47" fill="#1E365C" id="Path_47"/>
				<path d="M1749.358,909.965h25.856v23.673h22.192v24.59h-22.192V985.2c0,9.727,6.6,13.949,15.59,13.949a25.946,25.946,0,0,0,6.6-.737v23.857a56.556,56.556,0,0,1-12.471,1.47c-21.272,0-35.577-13.949-35.577-38.171Z" data-name="Path 48" fill="#1E365C" id="Path_48"/>
			</g>
			<path d="M1877.79,1026.209h54.91a20.989,20.989,0,0,0,17.729-9.755l26.019-41.042a19.045,19.045,0,0,0-.986-21.8l-34.691-45.083-6.48,2.38-57.449,107.876Z" data-name="Path 49" fill="#ff4e8e" id="Path_49"/>
			<path d="M1940.772,908.527,1916.5,876.955a21.715,21.715,0,0,0-36.535,3.308L1823.658,989.79a24.987,24.987,0,0,0,22.206,36.42h31.947l62.961-117.683Z" data-name="Path 50" fill="#00aeef" id="Path_50"/>
		</g>
	</g>
</svg>